<?xml version="1.0" standalone="no"?>
<!DOCTYPE svg PUBLIC "-//W3C//DTD SVG 20010904//EN"
 "http://www.w3.org/TR/2001/REC-SVG-20010904/DTD/svg10.dtd">
<svg version="1.0" xmlns="http://www.w3.org/2000/svg"
 width="728.000000pt" height="528.000000pt" viewBox="0 0 728.000000 528.000000"
 preserveAspectRatio="xMidYMid meet">

<g transform="translate(0.000000,528.000000) scale(0.100000,-0.100000)"
fill="#000000" stroke="none">
<path d="M0 2640 l0 -2640 3640 0 3640 0 0 2640 0 2640 -3640 0 -3640 0 0
-2640z m3240 1940 c-12 -8 -8 -10 15 -11 l30 -1 -30 -8 c-16 -4 -43 -8 -60 -8
l-30 0 30 8 c17 4 23 8 15 9 -13 1 -13 2 0 11 8 5 22 10 30 10 13 0 13 -1 0
-10z m237 -6 c-3 -3 -12 -4 -19 -1 -8 3 -5 6 6 6 11 1 17 -2 13 -5z m-320 -19
c0 -8 -6 -15 -13 -15 -7 0 -21 -3 -31 -7 -12 -4 -10 0 7 15 30 26 37 27 37 7z
m166 8 c-7 -2 -19 -2 -25 0 -7 3 -2 5 12 5 14 0 19 -2 13 -5z m402 -29 c65 -8
141 -19 169 -25 56 -10 245 -68 261 -79 6 -4 28 -13 50 -20 113 -36 350 -178
501 -301 140 -114 312 -318 415 -493 94 -160 174 -373 221 -590 20 -88 23
-131 23 -341 0 -211 -3 -253 -22 -346 -36 -169 -78 -299 -145 -449 -30 -69
-137 -257 -153 -270 -8 -7 -15 -18 -15 -25 0 -8 -3 -15 -8 -17 -4 -1 -23 -23
-42 -48 -67 -88 -156 -182 -242 -258 -121 -107 -151 -131 -165 -132 -7 0 -13
-4 -13 -9 0 -9 -75 -55 -194 -121 -159 -88 -409 -170 -579 -191 -45 -5 -93
-12 -107 -14 -49 -9 -327 -6 -425 5 -191 21 -382 78 -575 171 -104 50 -240
128 -260 149 -3 3 -40 31 -83 63 -147 110 -308 288 -416 460 -52 84 -141 252
-141 267 0 5 -8 29 -19 53 -38 86 -68 173 -77 224 -3 16 -9 42 -14 58 -33 111
-45 217 -44 415 0 168 4 227 22 326 46 255 145 495 299 726 36 54 69 98 74 98
5 0 9 4 9 9 0 10 84 103 179 197 62 63 85 76 93 52 2 -6 10 -8 16 -4 17 10 15
26 -3 20 -32 -13 -13 27 24 50 22 14 42 30 46 35 9 15 182 121 315 192 124 67
353 138 510 158 47 6 96 13 110 15 69 10 300 4 405 -10z m-1758 -699 c-23 -17
-21 -28 3 -22 19 5 19 4 2 -18 -19 -25 -35 -24 -25 2 4 11 3 14 -6 9 -6 -4 -9
-16 -6 -27 6 -19 -22 -79 -37 -79 -4 0 -8 -7 -8 -16 0 -10 -6 -14 -15 -10 -8
3 -15 1 -15 -4 0 -6 5 -10 11 -10 5 0 7 -5 3 -12 -5 -8 -11 -4 -18 11 -8 19
-7 26 7 36 9 7 17 17 17 23 0 6 7 9 15 6 8 -4 15 -2 16 2 4 60 44 138 63 127
5 -3 2 -11 -7 -18z m-133 -234 c-7 -8 -35 9 -29 19 4 6 11 5 20 -3 7 -6 11
-14 9 -16z m-22 -53 c-7 -7 -12 -8 -12 -2 0 14 12 26 19 19 2 -3 -1 -11 -7
-17z m3458 -173 c0 -5 -5 -3 -10 5 -5 8 -10 20 -10 25 0 6 5 3 10 -5 5 -8 10
-19 10 -25z m-3552 -35 c-7 -10 -14 -17 -17 -15 -4 4 18 35 25 35 2 0 -1 -9
-8 -20z m-8 -34 c0 -3 -4 -8 -10 -11 -5 -3 -10 -1 -10 4 0 6 5 11 10 11 6 0
10 -2 10 -4z m-113 -558 c-2 -18 -4 -6 -4 27 0 33 2 48 4 33 2 -15 2 -42 0
-60z m0 -195 c-2 -32 -3 -8 -3 52 0 61 1 87 3 58 2 -29 2 -78 0 -110z m8 -122
c-7 -25 -25 -28 -25 -5 0 8 5 12 10 9 6 -3 10 2 10 11 0 10 3 15 6 11 3 -3 3
-15 -1 -26z m-8 -68 c-3 -10 -5 -4 -5 12 0 17 2 24 5 18 2 -7 2 -21 0 -30z
m218 -593 c3 -6 -1 -7 -9 -4 -18 7 -21 14 -7 14 6 0 13 -4 16 -10z m-5 -25 c7
-9 8 -15 2 -15 -5 0 -12 7 -16 15 -3 8 -4 15 -2 15 2 0 9 -7 16 -15z m61 -57
c15 -28 20 -68 9 -68 -4 0 -11 7 -14 16 -3 8 -2 12 4 9 14 -9 12 1 -5 35 -9
17 -13 30 -11 30 3 0 11 -10 17 -22z m99 -161 c0 -13 -29 -14 -34 -1 -3 9 -1
12 4 9 15 -9 12 8 -5 31 -8 10 -15 23 -15 29 0 5 11 -7 25 -27 14 -20 25 -39
25 -41z m177 -198 c60 -61 71 -77 58 -83 -12 -4 -36 13 -86 63 -72 72 -81 85
-52 74 14 -5 12 0 -6 26 -18 25 -26 30 -33 19 -7 -10 -8 -10 -6 2 2 8 -2 15
-7 15 -6 0 -9 -4 -7 -10 2 -5 -2 -4 -9 3 -10 9 -10 15 -2 23 9 9 8 15 -3 26
-8 8 -14 19 -14 25 0 5 21 -16 47 -49 25 -32 79 -92 120 -134z m-173 155 c3
-8 2 -12 -4 -9 -6 3 -10 10 -10 16 0 14 7 11 14 -7z m2982 -81 c-3 -4 -6 -1
-6 6 0 7 -4 9 -10 6 -6 -4 -7 1 -3 11 6 15 7 15 15 -1 6 -9 7 -19 4 -22z m-29
-25 c-2 -7 -10 -13 -18 -14 -19 0 -89 -64 -89 -81 0 -7 -7 -13 -16 -13 -10 0
-14 -5 -10 -16 3 -8 2 -12 -4 -9 -6 3 -10 2 -10 -3 0 -18 -62 -71 -76 -65 -10
3 -12 0 -8 -10 5 -15 -42 -57 -65 -57 -7 0 -14 -7 -17 -15 -4 -10 -13 -13 -25
-10 -11 4 -19 2 -19 -5 0 -6 -7 -18 -15 -26 -8 -9 -15 -13 -15 -9 0 3 -9 -3
-21 -14 -26 -24 -66 -37 -48 -15 16 19 0 18 -22 -2 -10 -9 -23 -14 -29 -12 -7
2 10 16 36 31 27 15 60 35 74 45 24 16 24 16 11 -1 -9 -12 -10 -17 -2 -17 6 0
15 9 19 20 4 10 30 36 58 57 72 54 158 129 226 196 54 53 95 74 85 45z m-2658
-162 c19 -20 20 -24 7 -29 -9 -4 -15 -3 -15 1 3 18 -2 33 -9 28 -5 -3 -9 1 -9
9 0 19 0 19 26 -9z m81 -66 c0 -5 -2 -10 -4 -10 -3 0 -8 5 -11 10 -3 6 -1 10
4 10 6 0 11 -4 11 -10z m5 -30 c3 -5 1 -10 -4 -10 -6 0 -11 5 -11 10 0 6 2 10
4 10 3 0 8 -4 11 -10z m70 -25 l20 -16 -20 10 c-11 5 -29 17 -40 26 l-20 16
20 -10 c11 -5 29 -17 40 -26z m110 -73 c-3 -3 -11 0 -18 7 -9 10 -8 11 6 5 10
-3 15 -9 12 -12z m1866 -58 c-25 -18 -65 -28 -57 -15 4 6 1 11 -6 11 -7 1 2 9
21 19 26 14 38 16 47 7 9 -8 8 -13 -5 -22z m-91 -19 c-7 -8 -18 -15 -24 -15
-6 0 -2 7 8 15 25 19 32 19 16 0z m-1509 -53 c-7 -2 -18 1 -23 6 -8 8 -4 9 13
5 13 -4 18 -8 10 -11z"/>
<path d="M2700 4350 c0 -5 5 -10 10 -10 6 0 10 5 10 10 0 6 -4 10 -10 10 -5 0
-10 -4 -10 -10z"/>
<path d="M2797 4346 c-4 -10 0 -12 14 -9 22 6 26 23 5 23 -8 0 -16 -6 -19 -14z"/>
<path d="M4080 4329 c0 -12 8 -28 18 -35 27 -21 40 -16 14 5 -13 12 -20 25
-16 35 3 9 1 16 -5 16 -6 0 -11 -10 -11 -21z"/>
<path d="M4130 4346 c0 -2 9 -6 20 -9 11 -3 18 -1 14 4 -5 9 -34 13 -34 5z"/>
<path d="M4210 4316 c0 -2 7 -7 16 -10 8 -3 12 -2 9 4 -6 10 -25 14 -25 6z"/>
<path d="M4155 4280 c3 -5 8 -10 11 -10 2 0 4 5 4 10 0 6 -5 10 -11 10 -5 0
-7 -4 -4 -10z"/>
<path d="M2825 4270 c-3 -5 -1 -10 4 -10 6 0 11 5 11 10 0 6 -2 10 -4 10 -3 0
-8 -4 -11 -10z"/>
<path d="M4200 4270 c-12 -8 -11 -10 8 -10 12 0 22 5 22 10 0 13 -11 13 -30 0z"/>
<path d="M2950 4240 c0 -5 5 -10 11 -10 5 0 7 5 4 10 -3 6 -8 10 -11 10 -2 0
-4 -4 -4 -10z"/>
<path d="M2615 4230 c-3 -6 1 -7 9 -4 18 7 21 14 7 14 -6 0 -13 -4 -16 -10z"/>
<path d="M2823 4218 c-13 -6 -23 -17 -23 -25 0 -12 3 -12 16 1 8 9 24 16 35
16 10 0 19 5 19 10 0 13 -19 12 -47 -2z"/>
<path d="M2425 4180 c-22 -23 -25 -30 -12 -30 9 0 17 4 17 9 0 5 7 8 16 7 9 0
23 9 31 22 14 20 14 22 -4 22 -11 0 -32 -13 -48 -30z m40 1 c-3 -6 -11 -11
-17 -11 -6 0 -6 6 2 15 14 17 26 13 15 -4z"/>
<path d="M3130 4200 c0 -5 5 -10 11 -10 5 0 7 5 4 10 -3 6 -8 10 -11 10 -2 0
-4 -4 -4 -10z"/>
<path d="M3070 4191 c0 -5 -8 -12 -17 -14 -14 -4 -12 -5 5 -6 13 -1 22 5 22
14 0 8 -2 15 -5 15 -3 0 -5 -4 -5 -9z"/>
<path d="M2825 4170 c-19 -8 -19 -9 2 -9 12 -1 25 4 28 9 7 12 -2 12 -30 0z"/>
<path d="M2885 4170 c-3 -5 -1 -10 4 -10 6 0 11 5 11 10 0 6 -2 10 -4 10 -3 0
-8 -4 -11 -10z"/>
<path d="M4140 4169 c0 -5 5 -7 10 -4 6 3 10 8 10 11 0 2 -4 4 -10 4 -5 0 -10
-5 -10 -11z"/>
<path d="M3080 4160 c-13 -8 -12 -10 3 -10 9 0 17 5 17 10 0 12 -1 12 -20 0z"/>
<path d="M4450 4149 c0 -5 5 -7 10 -4 6 3 10 8 10 11 0 2 -4 4 -10 4 -5 0 -10
-5 -10 -11z"/>
<path d="M2930 4140 c0 -5 10 -10 23 -10 18 0 19 2 7 10 -19 13 -30 13 -30 0z"/>
<path d="M4248 4143 c6 -2 18 -2 25 0 6 3 1 5 -13 5 -14 0 -19 -2 -12 -5z"/>
<path d="M2450 4130 c-9 -6 -10 -10 -3 -10 6 0 15 5 18 10 8 12 4 12 -15 0z"/>
<path d="M2980 4120 c-8 -5 -12 -11 -10 -14 3 -2 14 2 24 10 22 15 10 19 -14
4z"/>
<path d="M3830 4120 c0 -6 7 -10 15 -10 8 0 15 2 15 4 0 2 -7 6 -15 10 -8 3
-15 1 -15 -4z"/>
<path d="M4188 4113 c7 -3 16 -2 19 1 4 3 -2 6 -13 5 -11 0 -14 -3 -6 -6z"/>
<path d="M2435 4101 c-6 -11 9 -23 19 -14 9 9 7 23 -3 23 -6 0 -12 -4 -16 -9z"/>
<path d="M2930 4095 c-8 -9 -8 -15 -2 -15 12 0 26 19 19 26 -2 2 -10 -2 -17
-11z"/>
<path d="M3485 4100 c-3 -5 -1 -10 4 -10 6 0 11 5 11 10 0 6 -2 10 -4 10 -3 0
-8 -4 -11 -10z"/>
<path d="M2840 4090 c0 -5 5 -10 11 -10 5 0 7 5 4 10 -3 6 -8 10 -11 10 -2 0
-4 -4 -4 -10z"/>
<path d="M3030 4080 c13 -8 12 -10 -2 -10 -11 0 -18 -7 -18 -17 0 -13 2 -15 8
-5 5 7 16 10 26 6 16 -6 17 -4 7 14 -7 12 -17 22 -24 22 -7 0 -6 -4 3 -10z"/>
<path d="M2790 4070 c0 -5 5 -10 10 -10 6 0 10 5 10 10 0 6 -4 10 -10 10 -5 0
-10 -4 -10 -10z"/>
<path d="M3836 4058 c3 -4 12 -8 20 -8 8 0 14 4 14 8 0 4 -9 8 -19 8 -11 0
-17 -4 -15 -8z"/>
<path d="M2305 4049 c-4 -6 -5 -13 -2 -16 7 -7 27 6 27 18 0 12 -17 12 -25 -2z"/>
<path d="M2396 4013 c-9 -25 -14 -49 -11 -51 8 -9 55 17 55 29 0 7 -8 5 -20
-6 -11 -10 -20 -13 -20 -7 0 6 5 14 10 17 6 4 8 15 5 26 -4 11 -2 19 4 19 6 0
11 5 11 10 0 26 -20 5 -34 -37z"/>
<path d="M4055 4049 c-4 -6 -13 -8 -21 -5 -22 9 -17 -32 6 -44 22 -12 80 -2
60 10 -9 6 -9 9 -1 15 9 5 9 10 0 21 -14 17 -35 18 -44 3z m15 -29 c0 -5 -5
-10 -11 -10 -5 0 -7 5 -4 10 3 6 8 10 11 10 2 0 4 -4 4 -10z"/>
<path d="M2521 4034 c0 -11 3 -14 6 -6 3 7 2 16 -1 19 -3 4 -6 -2 -5 -13z"/>
<path d="M2735 4030 c-3 -5 -2 -10 4 -10 5 0 13 5 16 10 3 6 2 10 -4 10 -5 0
-13 -4 -16 -10z"/>
<path d="M3048 4019 c12 -11 27 -17 33 -13 6 3 -1 12 -16 20 -38 19 -43 17
-17 -7z"/>
<path d="M3156 4015 c-11 -8 -15 -15 -9 -15 19 0 43 12 43 21 0 13 -12 11 -34
-6z"/>
<path d="M2879 4008 c-1 -7 -1 -17 0 -21 1 -4 -5 -15 -14 -23 -20 -20 -19 -34
1 -34 10 0 14 6 10 15 -3 9 0 15 9 15 9 0 12 6 9 15 -4 8 -1 22 6 30 10 12 9
15 -4 15 -9 0 -17 -6 -17 -12z"/>
<path d="M2612 3994 c-12 -8 -22 -20 -22 -26 0 -6 9 -3 19 6 11 10 24 15 30
11 7 -3 8 0 5 9 -7 19 -5 19 -32 0z"/>
<path d="M2926 3995 c4 -8 1 -15 -6 -15 -6 0 -8 -4 -5 -10 3 -5 11 -10 16 -10
6 0 8 4 5 9 -4 5 3 7 14 4 27 -7 25 1 -5 21 -21 14 -24 14 -19 1z"/>
<path d="M2270 3989 c0 -5 5 -7 10 -4 6 3 10 8 10 11 0 2 -4 4 -10 4 -5 0 -10
-5 -10 -11z"/>
<path d="M2454 3973 c-1 -13 -1 -23 0 -21 1 2 7 10 14 19 10 13 10 18 0 22 -8
3 -14 -5 -14 -20z"/>
<path d="M2570 3989 c0 -5 5 -7 10 -4 6 3 10 8 10 11 0 2 -4 4 -10 4 -5 0 -10
-5 -10 -11z"/>
<path d="M3030 3986 c0 -9 5 -16 10 -16 6 0 10 4 10 9 0 6 -4 13 -10 16 -5 3
-10 -1 -10 -9z"/>
<path d="M3917 3989 c7 -7 15 -10 18 -7 3 3 -2 9 -12 12 -14 6 -15 5 -6 -5z"/>
<path d="M2790 3960 c-18 -25 -19 -30 -5 -30 12 0 13 -4 7 -17 -5 -10 -8 -24
-6 -31 1 -7 0 -8 -3 -2 -6 13 -43 13 -43 0 0 -5 5 -10 11 -10 6 0 9 -6 6 -12
-2 -7 -11 -12 -21 -10 -9 2 -16 -4 -16 -13 0 -20 -17 -19 -28 1 -7 12 -11 13
-16 5 -20 -32 70 -66 102 -39 9 9 25 15 35 15 13 0 17 -8 15 -33 -1 -18 1 -36
5 -40 11 -12 77 6 77 21 0 9 -6 12 -15 9 -8 -4 -15 -10 -15 -15 0 -5 -9 -9
-21 -9 -11 0 -17 5 -14 10 11 18 82 47 108 44 20 -2 24 1 20 13 -5 13 -1 15
20 9 16 -4 27 -2 27 4 0 5 5 10 11 10 5 0 7 -4 4 -10 -3 -5 0 -10 8 -10 11 0
13 -7 9 -22 -5 -21 -4 -22 12 -9 9 8 31 15 48 15 17 1 33 6 35 12 2 7 13 10
23 7 16 -4 20 0 20 21 0 16 -6 26 -15 26 -9 0 -12 6 -9 15 4 8 1 15 -5 15 -7
0 -15 -10 -20 -22 -10 -27 -16 -26 -41 4 -16 20 -19 20 -20 6 0 -13 -8 -18
-30 -18 -22 0 -28 4 -24 15 4 8 1 15 -5 15 -7 0 -14 -7 -18 -16 -6 -15 -7 -15
-19 0 -7 10 -16 17 -20 16 -5 -1 -10 4 -13 11 -2 8 2 10 12 6 14 -5 15 -3 4
20 l-11 26 -9 -34 c-9 -36 -33 -69 -50 -69 -5 0 -4 7 3 15 7 8 9 15 4 15 -5 0
-3 4 4 8 9 6 10 15 3 33 -8 21 -10 22 -16 7 -10 -26 -55 -24 -55 2 0 11 -4 20
-10 20 -5 0 -10 5 -10 11 0 5 5 7 10 4 6 -3 10 -1 10 4 0 22 -29 10 -50 -19z
m105 -56 c-9 -9 -19 -13 -23 -10 -3 4 0 11 8 16 24 15 33 11 15 -6z m-64 -37
c-10 -9 -11 -8 -5 6 3 10 9 15 12 12 3 -3 0 -11 -7 -18z m-41 -11 c0 -3 -4 -8
-10 -11 -5 -3 -10 -1 -10 4 0 6 5 11 10 11 6 0 10 -2 10 -4z m280 -16 c0 -5
-2 -10 -4 -10 -3 0 -8 5 -11 10 -3 6 -1 10 4 10 6 0 11 -4 11 -10z m-135 -10
c-3 -5 -11 -10 -16 -10 -6 0 -7 5 -4 10 3 6 11 10 16 10 6 0 7 -4 4 -10z m190
-1 c11 -16 1 -19 -13 -3 -7 8 -8 14 -3 14 5 0 13 -5 16 -11z m-362 -6 c-7 -2
-19 -2 -25 0 -7 3 -2 5 12 5 14 0 19 -2 13 -5z m135 -7 c-2 0 -15 -12 -30 -25
l-27 -24 11 30 c8 22 16 29 30 25 10 -2 17 -5 16 -6z"/>
<path d="M2537 3966 c-4 -10 2 -13 18 -12 17 1 21 4 13 14 -14 16 -25 15 -31
-2z"/>
<path d="M3060 3960 c0 -5 5 -10 10 -10 6 0 10 5 10 10 0 6 -4 10 -10 10 -5 0
-10 -4 -10 -10z"/>
<path d="M3900 3960 c0 -5 5 -10 11 -10 5 0 7 5 4 10 -3 6 -8 10 -11 10 -2 0
-4 -4 -4 -10z"/>
<path d="M3110 3944 c0 -8 8 -14 17 -14 13 0 14 -3 5 -12 -20 -20 -14 -27 13
-15 13 7 27 18 30 26 4 11 3 12 -10 1 -12 -10 -15 -10 -15 3 0 8 -9 17 -20 20
-13 3 -20 0 -20 -9z"/>
<path d="M2584 3943 c-15 -3 -21 -12 -21 -28 0 -25 21 -25 31 1 3 8 13 14 21
14 9 0 13 5 10 10 -3 6 -9 9 -13 9 -4 -1 -17 -4 -28 -6z"/>
<path d="M3238 3943 c7 -3 16 -2 19 1 4 3 -2 6 -13 5 -11 0 -14 -3 -6 -6z"/>
<path d="M2310 3925 c-8 -9 -8 -15 -2 -15 12 0 26 19 19 26 -2 2 -10 -2 -17
-11z"/>
<path d="M2410 3926 c0 -9 5 -16 10 -16 6 0 10 4 10 9 0 6 -4 13 -10 16 -5 3
-10 -1 -10 -9z"/>
<path d="M2445 3921 c-3 -11 -16 -21 -27 -23 -12 -2 -23 -8 -25 -15 -3 -8 6
-7 27 4 30 15 48 38 37 49 -3 3 -8 -4 -12 -15z"/>
<path d="M2497 3933 c-10 -9 -9 -23 2 -23 5 0 11 7 15 15 5 15 -5 20 -17 8z"/>
<path d="M2995 3930 c-3 -5 -1 -10 4 -10 6 0 11 5 11 10 0 6 -2 10 -4 10 -3 0
-8 -4 -11 -10z"/>
<path d="M3201 3923 c26 -33 37 -42 43 -36 3 4 6 1 6 -5 0 -7 7 -12 16 -12 8
0 12 -4 9 -10 -3 -5 -1 -10 4 -10 14 0 14 6 0 31 -8 16 -7 25 7 40 9 10 12 19
6 19 -6 0 -12 -4 -14 -9 -1 -4 -13 -12 -26 -15 -15 -5 -24 -3 -28 8 -3 9 -13
16 -21 16 -13 0 -13 -2 -2 -17z"/>
<path d="M2507 3890 c-21 -24 -22 -31 -3 -24 8 3 17 1 21 -5 3 -6 -1 -11 -9
-11 -9 0 -13 -6 -10 -14 8 -22 -33 -26 -51 -6 -15 17 -15 19 4 25 12 4 18 12
14 21 -3 7 1 14 8 14 7 0 10 2 7 5 -9 9 -38 -7 -38 -21 0 -8 -7 -14 -15 -14
-18 0 -30 -24 -20 -41 6 -8 10 -7 16 2 8 12 10 12 18 0 12 -19 2 -46 -12 -32
-15 15 -27 14 -27 -4 0 -8 7 -15 15 -15 20 0 19 -6 -5 -30 -24 -24 -36 -25
-44 -5 -3 9 -14 15 -23 13 -19 -3 -44 -31 -42 -45 4 -25 -2 -53 -11 -48 -6 4
-7 -1 -3 -11 5 -14 3 -16 -12 -11 -15 7 -16 5 -5 -8 8 -9 22 -14 33 -11 13 3
17 0 13 -10 -3 -8 -2 -12 3 -9 13 8 22 -10 15 -29 -8 -20 -24 -21 -24 -1 0 22
-24 8 -43 -25 -15 -24 -15 -33 -5 -49 13 -21 9 -31 -15 -35 -26 -4 -48 -28
-42 -47 3 -10 -1 -31 -9 -46 l-15 -28 -1 25 -1 25 -10 -25 c-7 -17 -7 -26 0
-28 6 -2 11 -10 11 -18 0 -9 -5 -12 -11 -9 -12 8 -59 14 -59 8 0 -3 9 -12 21
-22 19 -15 20 -18 5 -30 -14 -12 -16 -12 -10 3 3 9 1 16 -5 16 -6 0 -11 -13
-11 -30 0 -20 5 -30 15 -30 20 0 19 -6 -5 -30 -26 -26 -25 -35 5 -36 19 -2 25
3 25 18 0 17 4 19 31 13 36 -8 49 4 49 48 0 31 27 38 37 10 4 -10 11 -21 17
-25 7 -5 7 -8 -1 -8 -7 0 -13 -7 -13 -16 0 -11 -6 -15 -19 -11 -11 3 -22 -1
-25 -8 -2 -8 -16 -12 -30 -11 -14 2 -31 -3 -38 -11 -6 -8 -30 -23 -52 -34 -23
-11 -59 -35 -81 -54 -22 -19 -45 -35 -52 -35 -7 0 -13 -4 -13 -10 0 -5 -18
-29 -40 -51 -22 -23 -43 -53 -46 -68 -3 -14 -9 -34 -14 -43 -46 -85 -80 -265
-69 -367 5 -41 6 -78 3 -83 -3 -4 0 -8 5 -8 6 0 11 -7 11 -15 0 -25 30 -108
62 -173 61 -120 194 -253 306 -304 91 -41 221 -49 312 -19 72 24 133 52 138
64 2 4 8 7 13 7 21 0 77 63 97 108 31 71 35 85 33 110 -3 28 17 29 21 0 2 -12
9 -23 16 -26 9 -3 10 3 2 23 -5 14 -7 37 -4 50 3 12 1 26 -6 30 -7 4 -11 1 -9
-6 3 -26 -1 -40 -11 -34 -5 3 -6 13 -3 22 4 11 3 14 -5 9 -7 -4 -12 -2 -12 5
0 7 -7 21 -17 31 -14 15 -14 18 -1 18 8 0 15 7 15 15 0 10 -4 12 -13 4 -9 -7
-16 -2 -25 21 -8 16 -19 30 -25 30 -18 0 -34 46 -21 59 8 8 8 11 0 11 -6 0
-14 -8 -18 -17 -7 -17 -8 -17 -14 1 -4 11 -16 20 -27 21 -54 4 -94 17 -94 30
0 18 -37 38 -52 29 -7 -4 -1 -12 16 -21 31 -16 26 -33 -10 -33 -13 0 -33 -5
-43 -12 -26 -16 -53 -3 -49 24 4 29 28 36 28 8 0 -12 4 -18 11 -15 6 4 7 19 4
36 -7 29 2 35 43 30 6 -1 12 3 12 9 0 7 8 9 19 5 11 -3 22 -1 26 4 16 27 106
-6 187 -68 51 -39 71 -72 61 -98 -4 -11 -3 -14 5 -9 8 5 12 -1 13 -16 1 -17 3
-18 6 -5 10 39 24 14 53 -98 8 -34 7 -42 -7 -52 -15 -11 -15 -13 -1 -13 18 0
32 -27 18 -35 -6 -4 -10 -18 -10 -33 0 -22 -2 -24 -10 -12 -8 11 -9 9 -5 -11
4 -15 0 -41 -8 -60 -18 -41 -61 -91 -71 -82 -3 3 -6 -2 -6 -11 0 -10 -18 -34
-39 -53 l-39 -34 16 -29 c9 -17 20 -30 25 -30 4 0 7 -7 7 -15 0 -8 4 -15 8
-15 5 0 28 -18 52 -40 24 -22 49 -40 56 -40 7 0 18 -13 26 -30 14 -33 28 -39
28 -14 0 15 2 15 23 2 30 -20 128 -48 167 -48 19 0 38 -7 45 -17 8 -11 18 -14
31 -9 18 8 18 8 -1 15 -17 7 -16 8 9 13 32 6 66 0 66 -13 0 -5 4 -9 10 -9 5 0
7 6 4 14 -3 7 2 16 10 19 10 4 13 1 9 -9 -3 -7 0 -14 7 -14 6 0 14 9 17 21 5
17 12 20 38 17 23 -3 31 0 28 9 -8 20 43 39 62 23 9 -7 15 -8 15 -2 0 6 -6 13
-12 15 -10 4 -9 8 2 16 78 53 160 148 160 186 0 8 10 19 21 26 18 9 30 6 73
-16 28 -16 59 -35 68 -43 10 -8 30 -16 44 -18 15 -1 30 -6 33 -11 3 -5 15 -10
26 -11 42 -4 57 -9 66 -23 7 -11 9 -11 9 -1 0 10 9 12 33 6 49 -11 69 -11 107
0 19 5 45 9 57 8 12 -1 25 3 28 8 3 6 16 10 28 10 23 1 76 31 115 65 45 39
102 100 102 108 0 5 9 21 19 36 11 15 22 47 26 71 3 25 8 52 10 60 3 9 -2 49
-10 90 -9 41 -17 82 -18 90 -1 8 -5 17 -8 20 -18 15 -18 48 1 65 11 10 20 13
20 7 0 -7 8 -12 18 -12 11 0 13 3 5 8 -13 8 -36 62 -27 62 10 0 43 -44 44 -57
0 -7 4 -13 8 -13 8 0 22 -31 53 -115 l18 -50 60 -1 c125 -3 272 74 365 192 25
31 55 40 68 20 5 -7 8 -4 8 7 0 22 18 13 31 -17 8 -17 9 -15 5 12 -4 25 -2 32
12 33 10 0 12 3 5 6 -7 2 -13 11 -13 19 0 9 5 12 12 8 6 -4 8 -3 4 4 -3 6 -8
47 -11 91 -3 68 -1 82 13 91 12 7 14 12 6 17 -14 10 -9 64 7 73 6 4 8 13 5 19
-4 6 -4 11 1 11 4 0 8 39 7 88 l-1 87 -38 -3 c-34 -3 -37 -1 -32 18 4 15 -6
31 -35 61 -37 37 -73 48 -73 22 0 -6 -4 -15 -9 -20 -5 -4 -6 3 -3 18 5 18 2
31 -9 40 -14 12 -14 14 3 20 15 7 16 8 1 8 -10 1 -18 11 -21 29 l-3 27 -13
-33 c-11 -27 -15 -30 -25 -19 -16 21 -76 30 -76 12 0 -7 -8 -20 -19 -27 -10
-7 -20 -17 -22 -23 -2 -5 -8 -9 -12 -7 -5 1 -11 -7 -14 -18 -3 -11 -10 -17
-15 -14 -5 3 -3 16 6 29 14 21 14 23 -4 18 -14 -4 -20 0 -20 11 0 11 -9 16
-26 16 -22 0 -24 -3 -19 -22 3 -13 3 -18 -2 -12 -4 6 -16 14 -27 17 -15 6 -17
4 -11 -10 15 -37 17 -53 6 -53 -6 0 -11 -6 -11 -13 0 -25 31 -77 46 -77 8 0
14 -8 14 -18 0 -10 8 -25 18 -33 22 -19 82 -33 82 -19 0 6 4 10 10 10 5 0 6
-7 3 -17 -5 -12 -3 -14 7 -8 8 5 11 3 8 -5 -7 -21 -38 -20 -78 0 -21 11 -40
16 -44 13 -3 -4 -6 -1 -6 5 0 6 -9 14 -20 17 -11 3 -20 15 -20 25 0 22 -17 35
-22 18 -3 -8 -12 -5 -28 10 -13 12 -52 41 -87 63 -35 23 -63 48 -63 55 0 8 -6
14 -12 14 -10 0 -9 3 1 9 9 6 10 11 2 15 -19 12 0 28 25 22 18 -5 24 -2 25 11
0 16 2 15 8 -2 5 -11 6 -26 3 -34 -4 -10 2 -9 21 4 33 21 34 33 5 45 -13 5
-19 9 -14 9 5 1 1 10 -9 22 l-19 20 -18 -23 c-10 -13 -18 -17 -18 -10 0 6 -7
12 -15 12 -8 0 -15 5 -15 10 0 6 9 10 20 10 26 0 28 54 3 69 -16 9 -16 12 -3
20 8 6 12 12 9 15 -3 3 -14 -1 -25 -9 -19 -15 -19 -15 4 -34 23 -20 29 -41 12
-41 -5 0 -10 7 -10 15 0 14 -11 19 -37 16 -8 -1 -13 9 -13 24 0 17 -5 25 -18
25 -10 0 -28 8 -41 17 -14 9 -21 11 -17 4 10 -15 -22 -41 -41 -34 -7 3 -13 -1
-13 -8 -1 -9 -4 -8 -11 4 -5 9 -7 22 -4 27 3 6 1 10 -6 10 -6 0 -9 8 -6 20 3
11 2 20 -3 20 -4 0 -10 -9 -13 -19 -3 -14 -11 -18 -26 -14 -11 3 -18 10 -14
16 4 7 0 8 -12 4 -9 -4 -25 -2 -34 5 -14 12 -14 11 -2 -4 7 -10 20 -18 27 -18
17 0 18 -17 2 -23 -7 -2 -10 -7 -6 -11 3 -4 16 -2 28 4 20 11 21 10 15 -9 -6
-21 18 -105 37 -128 8 -10 6 -13 -7 -13 -10 0 -15 -3 -12 -7 4 -3 0 -17 -8
-30 -14 -21 -12 -27 8 -24 17 3 -4 -17 -23 -22 -12 -3 -18 -1 -14 5 4 6 0 14
-7 19 -10 6 -11 9 -1 9 6 0 12 5 12 10 0 6 -6 10 -14 10 -17 0 -28 37 -12 44
6 2 3 5 -6 5 -10 1 -18 6 -18 11 0 6 0 12 0 15 0 3 -11 28 -25 55 l-26 51 26
-7 c25 -6 35 8 15 21 -5 3 -10 15 -10 26 0 11 -4 18 -9 15 -5 -3 -7 -16 -4
-29 4 -21 4 -21 -11 -3 -8 10 -19 15 -25 11 -6 -3 -11 -1 -11 5 0 6 -13 25
-30 42 -16 16 -30 34 -30 39 0 5 -3 8 -7 7 -5 -2 -23 8 -41 22 -19 14 -37 25
-40 26 -4 0 -20 6 -37 13 -47 20 -155 41 -210 41 -47 0 -150 -22 -163 -35 -3
-3 4 -33 17 -68 32 -88 40 -235 16 -308 -24 -72 -58 -125 -113 -176 -42 -40
-58 -48 -89 -44 -7 1 -13 -5 -13 -13 0 -15 -79 -49 -141 -61 -121 -23 -308 97
-353 225 -21 60 -20 99 3 153 18 41 38 56 76 57 18 0 37 -40 26 -54 -6 -6 -12
-30 -15 -51 -7 -58 33 -137 87 -173 99 -66 153 -76 233 -42 130 56 206 164
213 303 2 38 -34 174 -50 191 -5 6 -9 16 -9 23 0 12 -55 90 -82 116 -7 7 -30
23 -51 36 -30 18 -36 26 -25 33 9 7 5 8 -13 4 -14 -3 -34 0 -45 7 -10 7 -37
14 -59 16 -22 1 -44 8 -50 14 -7 8 -32 11 -75 9 -121 -7 -172 -6 -178 4 -18
28 -82 26 -82 -1 0 -16 -6 -20 -42 -29 -22 -5 -26 -3 -22 9 4 8 1 15 -5 15 -6
0 -11 5 -11 10 0 6 3 9 8 8 36 -7 56 47 27 75 -11 12 -12 17 -2 20 6 3 2 6
-10 6 -13 1 -23 4 -23 9 0 4 -20 7 -44 7 -44 0 -73 13 -48 22 13 5 17 23 4 23
-4 0 -15 -9 -25 -20z m29 -78 c-17 -16 -18 -16 -5 5 7 12 15 20 18 17 3 -2 -3
-12 -13 -22z m74 -87 c0 -8 -4 -15 -10 -15 -5 0 -10 -5 -10 -11 0 -6 6 -9 13
-6 8 3 20 1 28 -4 10 -6 7 -9 -13 -9 -16 0 -28 -4 -28 -10 0 -5 -7 -10 -15
-10 -8 0 -19 -9 -25 -20 -6 -11 -18 -20 -28 -20 -13 0 -14 -2 -3 -9 9 -6 10
-11 2 -15 -6 -4 -11 -2 -11 5 0 6 -8 9 -20 6 -32 -8 -23 1 15 17 19 8 38 22
41 31 3 8 12 15 20 15 8 0 11 6 8 15 -4 8 -10 12 -15 9 -11 -6 -11 -1 -3 20 3
9 10 14 14 11 5 -3 11 -1 15 5 9 15 25 12 25 -5z m140 9 c0 -9 -24 -29 -38
-32 -10 -2 -10 2 -2 18 10 18 40 29 40 14z m-394 -11 c-10 -11 -37 -12 -30 -2
3 5 12 9 21 9 9 0 13 -3 9 -7z m34 -34 c0 -6 -4 -7 -10 -4 -5 3 -10 -2 -10
-12 0 -15 -2 -16 -10 -3 -8 12 -12 13 -19 2 -7 -11 -9 -11 -14 2 -7 19 6 28
27 20 9 -3 16 -1 16 6 0 6 5 8 10 5 6 -3 10 -11 10 -16z m145 11 c-3 -5 -10
-10 -16 -10 -5 0 -9 5 -9 10 0 6 7 10 16 10 8 0 12 -4 9 -10z m-166 -78 c-1
-16 -2 -16 -6 0 -3 11 -11 15 -21 12 -14 -5 -14 -4 -2 4 18 13 30 6 29 -16z
m77 -23 c4 -8 0 -9 -15 -4 -11 3 -21 3 -22 -2 0 -4 -2 -18 -5 -30 -2 -13 1
-23 6 -23 6 0 10 5 10 10 0 6 5 10 10 10 6 0 10 -7 10 -15 0 -8 4 -15 10 -15
5 0 -1 -16 -13 -35 -62 -97 -78 -125 -83 -154 -5 -23 -10 -29 -17 -22 -18 18
-37 12 -37 -10 0 -16 4 -19 20 -14 22 7 25 -1 11 -24 -8 -12 -12 -13 -26 -1
-34 28 -56 100 -30 100 7 0 15 9 18 20 3 11 1 20 -5 20 -6 0 -8 7 -5 14 4 11
1 13 -11 10 -15 -5 -15 -4 1 9 9 8 17 22 17 31 0 9 4 16 8 16 16 0 52 37 52
53 0 9 10 22 23 28 12 7 26 18 30 25 10 17 33 18 43 3z m44 -29 c0 -5 -2 -10
-4 -10 -3 0 -8 5 -11 10 -3 6 -1 10 4 10 6 0 11 -4 11 -10z m-220 -174 c0 -2
-7 -9 -15 -16 -12 -10 -15 -10 -15 4 0 9 7 16 15 16 8 0 15 -2 15 -4z m2075
-76 c3 -5 1 -10 -4 -10 -6 0 -11 5 -11 10 0 6 2 10 4 10 3 0 8 -4 11 -10z
m-41 -8 c3 -5 -1 -9 -9 -9 -8 0 -15 4 -15 9 0 4 4 8 9 8 6 0 12 -4 15 -8z
m-2100 -81 c24 -26 17 -39 -14 -30 -16 4 -19 7 -7 8 9 1 17 6 17 11 0 6 -7 10
-16 8 -10 -2 -19 3 -21 10 -7 19 22 14 41 -7z m129 7 c5 -15 -10 -48 -21 -48
-6 0 -8 42 -3 58 3 7 20 0 24 -10z m1977 -52 c0 -3 -15 -19 -32 -35 -43 -41
-68 -41 -68 -1 0 17 4 30 10 30 5 0 6 -8 3 -17 -6 -16 -5 -17 12 -3 11 9 16
10 11 3 -4 -7 -2 -13 3 -13 6 0 11 7 11 15 0 8 6 12 14 9 8 -3 17 -1 21 5 6
11 15 15 15 7z m90 -31 c-7 -8 -20 -14 -29 -14 -13 1 -13 2 2 6 9 2 17 9 17
14 0 6 -4 7 -10 4 -5 -3 -10 -2 -10 4 0 13 23 20 34 10 5 -5 4 -14 -4 -24z
m-111 -36 c-25 -16 -33 -9 -13 10 10 10 21 14 23 8 2 -5 -3 -13 -10 -18z m411
21 c0 -5 -4 -10 -10 -10 -5 0 -10 5 -10 10 0 6 5 10 10 10 6 0 10 -4 10 -10z
m-310 -20 c0 -5 -2 -10 -4 -10 -3 0 -8 5 -11 10 -3 6 -1 10 4 10 6 0 11 -4 11
-10z m548 -14 c-7 -8 -15 -12 -17 -11 -5 6 10 25 20 25 5 0 4 -6 -3 -14z
m-148 -27 c-12 -22 -31 -21 -38 1 -3 7 0 10 5 7 5 -3 15 -2 23 4 21 13 22 11
10 -12z m-610 1 c0 -5 -7 -10 -15 -10 -8 0 -15 5 -15 10 0 6 7 10 15 10 8 0
15 -4 15 -10z m621 -57 c-12 -20 -14 -14 -5 12 4 9 9 14 11 11 3 -2 0 -13 -6
-23z m-28 -55 c12 -9 18 -20 13 -25 -5 -4 -11 -2 -13 5 -3 6 -11 12 -19 12 -8
0 -14 5 -14 11 0 5 -4 7 -10 4 -12 -7 -12 0 -3 34 l6 25 9 -25 c5 -13 19 -32
31 -41z m287 42 c0 -5 -7 -10 -15 -10 -8 0 -15 5 -15 10 0 6 7 10 15 10 8 0
15 -4 15 -10z m-75 -29 c3 -5 1 -12 -5 -16 -5 -3 -10 1 -10 9 0 18 6 21 15 7z
m35 -13 c0 -12 -3 -18 -7 -14 -11 10 -12 36 -2 36 5 0 9 -10 9 -22z m-190 -29
c0 -14 -17 -10 -23 5 -4 10 -1 13 9 9 7 -3 14 -9 14 -14z m160 1 c11 -8 7 -9
-15 -4 -37 8 -45 14 -19 14 10 0 26 -5 34 -10z m-148 -32 c-8 -8 -9 -4 -5 13
4 13 8 18 11 10 2 -7 -1 -18 -6 -23z m-700 -320 c-7 -7 -12 -18 -12 -26 0 -10
10 -5 27 13 24 23 34 26 72 22 24 -3 47 -11 52 -18 4 -8 14 -14 21 -15 35 -3
41 -4 35 -10 -3 -4 -2 -15 4 -25 6 -13 6 -19 -1 -19 -5 0 -10 4 -10 9 0 10
-48 2 -56 -10 -8 -14 -47 -11 -88 6 -36 15 -62 12 -51 -6 10 -14 -38 -29 -50
-16 -14 16 -75 16 -75 0 0 -16 -15 -16 -41 -2 -20 10 -20 11 3 31 42 37 204
100 170 66z m940 -82 c-9 -10 -11 -16 -4 -12 6 4 12 2 12 -3 0 -20 -38 -11
-43 10 -4 15 0 23 13 26 12 3 17 11 13 21 -3 13 -1 13 11 -2 14 -18 14 -21 -2
-40z m-694 -2 c0 -34 -15 -30 -20 5 -3 20 0 27 8 24 6 -2 12 -15 12 -29z m-52
-9 c21 -11 24 -15 11 -15 -10 0 -15 -5 -12 -11 4 -6 13 -8 21 -5 16 6 18 -12
4 -34 -8 -13 -10 -13 -10 1 0 9 -7 19 -15 23 -8 3 -15 12 -15 21 0 8 -7 15
-16 15 -8 0 -12 5 -9 10 8 13 7 13 41 -5z m84 -7 c0 -7 3 -24 6 -38 5 -17 4
-22 -4 -15 -16 15 -26 65 -13 65 6 0 11 -6 11 -12z m-376 -16 c-5 -15 -54 -48
-54 -35 0 8 43 51 52 52 3 1 4 -7 2 -17z m-90 2 c13 -5 14 -9 5 -20 -9 -11 -8
-14 4 -14 21 0 31 -32 14 -42 -8 -4 -20 -21 -27 -37 -6 -16 -18 -32 -27 -35
-8 -3 -11 -11 -8 -17 4 -5 9 -23 12 -40 3 -22 0 -29 -11 -29 -9 0 -16 5 -16
11 0 8 -5 7 -15 -1 -20 -17 -32 -5 -15 15 11 13 11 16 0 13 -15 -4 -24 44 -16
88 4 17 20 46 37 65 29 32 30 33 36 11 3 -12 9 -22 14 -22 5 0 4 12 -1 26 -15
38 -14 39 14 28z m446 -8 c0 -3 -4 -8 -10 -11 -5 -3 -10 -1 -10 4 0 6 5 11 10
11 6 0 10 -2 10 -4z"/>
<path d="M2370 3520 c0 -5 7 -10 15 -10 8 0 15 5 15 10 0 6 -7 10 -15 10 -8 0
-15 -4 -15 -10z"/>
<path d="M2300 3470 c0 -5 5 -10 11 -10 5 0 7 5 4 10 -3 6 -8 10 -11 10 -2 0
-4 -4 -4 -10z"/>
<path d="M2330 3369 c0 -11 4 -18 10 -14 5 3 7 12 3 20 -7 21 -13 19 -13 -6z"/>
<path d="M2293 3365 c-10 -11 -9 -13 6 -12 10 0 18 7 18 14 0 17 -9 16 -24 -2z"/>
<path d="M4165 2560 c-3 -5 -1 -10 4 -10 6 0 11 5 11 10 0 6 -2 10 -4 10 -3 0
-8 -4 -11 -10z"/>
<path d="M4196 2551 c-3 -5 1 -11 9 -15 8 -3 15 -1 15 4 0 13 -18 22 -24 11z"/>
<path d="M2600 3900 c0 -5 9 -10 20 -10 11 0 20 5 20 10 0 6 -9 10 -20 10 -11
0 -20 -4 -20 -10z"/>
<path d="M3580 3888 c0 -19 2 -20 10 -8 13 19 13 30 0 30 -5 0 -10 -10 -10
-22z"/>
<path d="M2334 3841 c3 -5 -3 -11 -14 -14 -11 -3 -20 -13 -19 -24 0 -11 3 -13
6 -5 3 7 16 17 30 23 23 8 24 29 2 29 -6 0 -8 -4 -5 -9z"/>
<path d="M2369 3828 c-10 -18 -9 -20 6 -15 9 4 19 7 21 7 2 0 4 7 4 15 0 22
-18 18 -31 -7z"/>
<path d="M3200 3840 c0 -4 7 -11 16 -14 22 -8 26 -8 20 3 -4 5 0 11 6 14 7 2
1 4 -14 4 -16 0 -28 -3 -28 -7z"/>
<path d="M3260 3815 c-7 -9 -8 -15 -2 -15 5 0 12 7 16 15 3 8 4 15 2 15 -2 0
-9 -7 -16 -15z"/>
<path d="M3180 3805 c-10 -12 -9 -15 6 -15 15 0 16 -2 5 -9 -11 -7 -11 -13 4
-32 14 -21 16 -21 11 -4 -3 11 -1 27 4 35 8 12 10 11 10 -7 0 -16 5 -20 20
-16 11 3 20 10 20 15 0 5 -4 6 -10 3 -5 -3 -10 1 -10 9 0 9 -7 16 -15 16 -8 0
-15 5 -15 10 0 15 -16 12 -30 -5z"/>
<path d="M3285 3800 c3 -5 8 -10 11 -10 2 0 4 5 4 10 0 6 -5 10 -11 10 -5 0
-7 -4 -4 -10z"/>
<path d="M4180 3800 c0 -12 28 -21 35 -11 2 5 -4 11 -15 14 -11 3 -20 2 -20
-3z"/>
<path d="M2383 3793 c4 -3 2 -12 -4 -19 -8 -10 -7 -17 3 -27 12 -13 14 -10 15
19 1 19 -4 34 -10 34 -6 0 -7 -3 -4 -7z"/>
<path d="M2790 3780 c-9 -16 -8 -20 6 -20 10 0 14 3 11 7 -4 3 -2 12 4 20 8 9
8 13 1 13 -6 0 -16 -9 -22 -20z"/>
<path d="M3020 3785 c0 -8 5 -15 10 -15 6 0 10 7 10 15 0 8 -4 15 -10 15 -5 0
-10 -7 -10 -15z"/>
<path d="M2691 3781 c-10 -6 -10 -10 -1 -16 13 -8 24 -1 19 14 -3 6 -10 7 -18
2z"/>
<path d="M3310 3776 c0 -12 -5 -16 -18 -12 -14 5 -22 -1 -30 -21 -12 -26 -11
-27 3 -8 9 11 23 19 31 17 15 -3 31 24 20 35 -3 4 -6 -1 -6 -11z"/>
<path d="M2260 3766 c0 -8 4 -17 9 -21 6 -3 9 4 8 15 -1 23 -17 28 -17 6z"/>
<path d="M2305 3769 c-11 -17 1 -21 15 -4 8 9 8 15 2 15 -6 0 -14 -5 -17 -11z"/>
<path d="M3330 3730 c-14 -27 -6 -38 14 -18 8 9 11 20 6 28 -6 9 -11 7 -20
-10z"/>
<path d="M3301 3724 c0 -11 3 -14 6 -6 3 7 2 16 -1 19 -3 4 -6 -2 -5 -13z"/>
<path d="M2260 3710 c0 -5 5 -10 10 -10 6 0 10 5 10 10 0 6 -4 10 -10 10 -5 0
-10 -4 -10 -10z"/>
<path d="M3460 3700 c0 -5 5 -10 10 -10 6 0 10 5 10 10 0 6 -4 10 -10 10 -5 0
-10 -4 -10 -10z"/>
<path d="M3700 3700 c0 -5 5 -10 10 -10 6 0 10 5 10 10 0 6 -4 10 -10 10 -5 0
-10 -4 -10 -10z"/>
<path d="M3602 3688 c3 -7 13 -15 23 -17 17 -3 17 -2 3 13 -20 19 -31 21 -26
4z"/>
<path d="M3370 3680 c0 -5 7 -10 16 -10 8 0 12 5 9 10 -3 6 -10 10 -16 10 -5
0 -9 -4 -9 -10z"/>
<path d="M3980 3654 c0 -8 5 -12 10 -9 6 4 8 11 5 16 -9 14 -15 11 -15 -7z"/>
<path d="M3845 3650 c-3 -5 1 -10 10 -10 9 0 13 5 10 10 -3 6 -8 10 -10 10 -2
0 -7 -4 -10 -10z"/>
<path d="M4440 3645 c0 -8 2 -15 4 -15 2 0 6 7 10 15 3 8 1 15 -4 15 -6 0 -10
-7 -10 -15z"/>
<path d="M4130 3636 c0 -2 7 -9 15 -16 9 -7 15 -8 15 -2 0 5 -7 12 -15 16 -8
3 -15 4 -15 2z"/>
<path d="M2176 3615 c-3 -8 -1 -15 4 -15 6 0 10 7 10 15 0 8 -2 15 -4 15 -2 0
-6 -7 -10 -15z"/>
<path d="M3960 3614 c0 -8 5 -12 10 -9 6 3 10 10 10 16 0 5 -4 9 -10 9 -5 0
-10 -7 -10 -16z"/>
<path d="M4035 3620 c3 -5 10 -10 16 -10 5 0 9 5 9 10 0 6 -7 10 -16 10 -8 0
-12 -4 -9 -10z"/>
<path d="M4085 3610 c3 -5 16 -10 28 -9 21 0 21 1 2 9 -28 12 -37 12 -30 0z"/>
<path d="M4225 3600 c3 -5 8 -10 11 -10 2 0 4 5 4 10 0 6 -5 10 -11 10 -5 0
-7 -4 -4 -10z"/>
<path d="M3965 3580 c3 -5 15 -10 26 -10 10 0 19 5 19 10 0 6 -12 10 -26 10
-14 0 -23 -4 -19 -10z"/>
<path d="M4092 3583 c-26 -5 -20 -23 9 -23 10 0 19 7 19 15 0 8 -1 14 -2 14
-2 -1 -13 -4 -26 -6z"/>
<path d="M4005 3550 c3 -5 8 -10 11 -10 2 0 4 5 4 10 0 6 -5 10 -11 10 -5 0
-7 -4 -4 -10z"/>
<path d="M2251 3543 c-1 -7 -7 -10 -15 -7 -8 3 -17 1 -20 -4 -8 -13 17 -22 34
-12 7 4 10 14 7 21 -4 9 -6 10 -6 2z"/>
<path d="M4038 3543 c7 -3 16 -2 19 1 4 3 -2 6 -13 5 -11 0 -14 -3 -6 -6z"/>
<path d="M5000 3513 c0 -6 8 -17 18 -24 16 -13 16 -13 2 6 -8 11 -16 22 -17
24 -2 2 -3 0 -3 -6z"/>
<path d="M4165 3500 c-19 -8 -19 -9 3 -9 12 -1 22 4 22 9 0 6 -1 10 -2 9 -2 0
-12 -4 -23 -9z"/>
<path d="M2200 3490 c0 -5 5 -10 11 -10 5 0 7 5 4 10 -3 6 -8 10 -11 10 -2 0
-4 -4 -4 -10z"/>
<path d="M2240 3490 c0 -5 5 -10 11 -10 5 0 7 5 4 10 -3 6 -8 10 -11 10 -2 0
-4 -4 -4 -10z"/>
<path d="M2170 3476 c0 -9 5 -16 10 -16 6 0 10 4 10 9 0 6 -4 13 -10 16 -5 3
-10 -1 -10 -9z"/>
<path d="M4164 3459 c0 -11 4 -19 8 -19 4 0 8 5 8 10 0 6 9 10 21 10 11 0 18
4 15 9 -3 5 -16 9 -29 9 -16 0 -23 -6 -23 -19z"/>
<path d="M4962 3450 c-7 -11 -9 -20 -4 -20 4 0 13 9 20 20 7 11 9 20 4 20 -4
0 -13 -9 -20 -20z"/>
<path d="M4360 3450 c0 -5 5 -10 11 -10 5 0 7 5 4 10 -3 6 -8 10 -11 10 -2 0
-4 -4 -4 -10z"/>
<path d="M4928 3455 c-11 -12 4 -44 28 -60 13 -8 24 -11 24 -5 0 5 -5 10 -10
10 -6 0 -17 14 -24 30 -7 17 -15 28 -18 25z"/>
<path d="M2106 3441 c8 -8 43 -8 38 0 -2 4 -13 7 -24 6 -10 -1 -17 -3 -14 -6z"/>
<path d="M4248 3443 c-28 -7 -21 -21 7 -15 14 2 25 8 25 13 0 9 -4 10 -32 2z"/>
<path d="M4142 3414 c-11 -12 -9 -14 8 -14 11 0 20 4 20 9 0 17 -15 19 -28 5z"/>
<path d="M2128 3413 c7 -3 16 -2 19 1 4 3 -2 6 -13 5 -11 0 -14 -3 -6 -6z"/>
<path d="M4284 3392 c-16 -11 -24 -41 -14 -47 6 -4 10 3 10 14 0 12 7 21 15
21 8 0 15 5 15 10 0 12 -11 13 -26 2z"/>
<path d="M2150 3370 c0 -5 5 -10 10 -10 6 0 10 5 10 10 0 6 -4 10 -10 10 -5 0
-10 -4 -10 -10z"/>
<path d="M4350 3362 c0 -4 14 -8 30 -9 17 -1 30 1 30 6 0 4 -13 8 -30 9 -16 0
-30 -2 -30 -6z"/>
<path d="M2060 3349 c0 -5 5 -7 10 -4 6 3 10 8 10 11 0 2 -4 4 -10 4 -5 0 -10
-5 -10 -11z"/>
<path d="M4873 3353 c19 -5 17 -30 -2 -25 -14 3 -15 -35 0 -43 14 -9 16 -6 24
38 7 34 6 37 -16 36 -18 -1 -20 -2 -6 -6z"/>
<path d="M4505 3290 c-3 -5 -1 -10 4 -10 6 0 11 5 11 10 0 6 -2 10 -4 10 -3 0
-8 -4 -11 -10z"/>
<path d="M4470 3265 c-11 -13 -10 -14 4 -9 9 3 16 10 16 15 0 13 -6 11 -20 -6z"/>
<path d="M4755 3260 c-3 -5 -1 -10 4 -10 6 0 11 5 11 10 0 6 -2 10 -4 10 -3 0
-8 -4 -11 -10z"/>
<path d="M4866 3225 c-3 -8 -1 -17 3 -20 5 -3 11 2 15 10 3 8 1 17 -3 20 -5 3
-11 -2 -15 -10z"/>
<path d="M2093 3202 c-7 -4 -9 -19 -5 -37 l6 -30 7 35 c8 39 8 42 -8 32z"/>
<path d="M4971 3194 c0 -11 3 -14 6 -6 3 7 2 16 -1 19 -3 4 -6 -2 -5 -13z"/>
<path d="M5035 3161 c-3 -5 -1 -12 5 -16 5 -3 10 1 10 9 0 18 -6 21 -15 7z"/>
<path d="M4540 3145 c-11 -13 -10 -14 4 -9 9 3 16 10 16 15 0 13 -6 11 -20 -6z"/>
<path d="M4580 3140 c0 -5 5 -10 10 -10 6 0 10 5 10 10 0 6 -4 10 -10 10 -5 0
-10 -4 -10 -10z"/>
<path d="M4970 3140 c0 -5 5 -10 11 -10 5 0 7 5 4 10 -3 6 -8 10 -11 10 -2 0
-4 -4 -4 -10z"/>
<path d="M4460 3130 c0 -5 5 -10 10 -10 6 0 10 5 10 10 0 6 -4 10 -10 10 -5 0
-10 -4 -10 -10z"/>
<path d="M4600 3106 c0 -9 5 -16 10 -16 6 0 10 4 10 9 0 6 -4 13 -10 16 -5 3
-10 -1 -10 -9z"/>
<path d="M5042 3098 c3 -7 13 -15 22 -16 12 -3 17 1 14 10 -3 7 -13 15 -22 16
-12 3 -17 -1 -14 -10z"/>
<path d="M1961 3054 c0 -11 3 -14 6 -6 3 7 2 16 -1 19 -3 4 -6 -2 -5 -13z"/>
<path d="M1840 3020 c0 -5 7 -10 15 -10 8 0 15 5 15 10 0 6 -7 10 -15 10 -8 0
-15 -4 -15 -10z"/>
<path d="M1860 2940 c0 -5 4 -10 9 -10 6 0 13 5 16 10 3 6 -1 10 -9 10 -9 0
-16 -4 -16 -10z"/>
<path d="M5243 2913 c4 -3 2 -12 -4 -20 -9 -10 -7 -13 10 -13 11 0 21 2 21 4
0 14 -14 36 -23 36 -6 0 -7 -3 -4 -7z"/>
<path d="M5229 2870 c-1 -3 -3 -34 -6 -70 -6 -107 -7 -114 -23 -130 -8 -8 -17
-33 -18 -54 -2 -22 -11 -50 -19 -63 -23 -35 -10 -37 16 -3 13 18 20 38 16 49
-4 15 -1 17 19 14 25 -5 25 -4 21 51 -2 31 0 56 6 56 5 0 9 -9 9 -20 0 -11 5
-20 10 -20 15 0 12 15 -9 54 -14 25 -16 37 -8 45 6 6 7 11 3 11 -5 0 -3 6 3
14 8 10 8 20 -4 42 -8 16 -16 27 -16 24z"/>
<path d="M5271 2764 c0 -11 3 -14 6 -6 3 7 2 16 -1 19 -3 4 -6 -2 -5 -13z"/>
<path d="M5125 2680 c4 -6 11 -8 16 -5 14 9 11 15 -7 15 -8 0 -12 -5 -9 -10z"/>
<path d="M5145 2650 c-3 -5 -1 -10 4 -10 6 0 11 5 11 10 0 6 -2 10 -4 10 -3 0
-8 -4 -11 -10z"/>
<path d="M5250 2571 c0 -6 5 -13 10 -16 6 -3 10 1 10 9 0 9 -4 16 -10 16 -5 0
-10 -4 -10 -9z"/>
<path d="M2550 2514 c0 -10 5 -26 10 -34 8 -11 9 -7 4 15 -8 37 -14 45 -14 19z"/>
<path d="M2620 2470 c0 -5 5 -10 11 -10 5 0 7 5 4 10 -3 6 -8 10 -11 10 -2 0
-4 -4 -4 -10z"/>
<path d="M2705 2437 c-4 -10 -5 -21 -1 -24 10 -10 18 4 13 24 -4 17 -4 17 -12
0z"/>
<path d="M4425 2380 c3 -5 10 -10 16 -10 5 0 9 5 9 10 0 6 -7 10 -16 10 -8 0
-12 -4 -9 -10z"/>
<path d="M2741 2344 c0 -11 3 -14 6 -6 3 7 2 16 -1 19 -3 4 -6 -2 -5 -13z"/>
<path d="M4460 2349 c0 -5 5 -7 10 -4 6 3 10 8 10 11 0 2 -4 4 -10 4 -5 0 -10
-5 -10 -11z"/>
<path d="M5059 2343 c-1 -10 0 -28 1 -40 1 -17 -3 -20 -19 -16 -11 3 -21 11
-23 19 -2 11 -7 9 -16 -7 -11 -18 -11 -20 0 -17 7 3 21 -4 30 -15 24 -27 43
-5 45 51 0 39 -16 62 -18 25z"/>
<path d="M2797 2300 c-3 -11 -1 -23 4 -26 5 -3 9 6 9 20 0 31 -6 34 -13 6z"/>
<path d="M1731 2262 c-1 -12 6 -25 14 -28 12 -5 12 -8 1 -20 -9 -9 -12 -26 -9
-46 7 -47 13 -48 13 -2 0 22 6 46 13 53 10 10 9 15 -4 24 -9 7 -18 19 -22 27
-3 10 -6 7 -6 -8z"/>
<path d="M4990 2245 c0 -8 -4 -15 -10 -15 -5 0 -10 5 -10 10 0 6 -4 10 -10 10
-5 0 -10 -8 -10 -17 0 -11 -3 -14 -8 -7 -4 6 -15 13 -24 17 -25 9 -53 -45 -38
-72 12 -24 13 -31 1 -31 -5 0 -11 10 -14 22 -8 30 -16 19 -10 -14 7 -35 43
-46 43 -13 0 12 7 29 17 36 14 13 16 11 11 -12 -3 -16 0 -26 8 -26 7 0 10 6 7
14 -5 13 10 17 55 13 18 -1 22 4 22 29 0 21 5 31 15 31 8 0 15 5 15 10 0 6 -7
10 -15 10 -8 0 -15 5 -15 10 0 6 -7 10 -15 10 -8 0 -15 -7 -15 -15z m-16 -66
c-6 -11 -24 -2 -24 11 0 5 7 7 15 4 8 -4 12 -10 9 -15z"/>
<path d="M1790 2203 c0 -13 -5 -22 -11 -20 -17 3 -19 -30 -5 -71 8 -23 19 -37
30 -37 9 0 16 3 16 8 0 4 0 18 0 32 0 31 -20 33 -21 3 0 -13 -3 -18 -5 -11 -3
6 -1 29 5 49 6 23 7 43 1 53 -8 13 -9 12 -10 -6z"/>
<path d="M4815 2190 c-3 -5 -1 -10 4 -10 6 0 11 5 11 10 0 6 -2 10 -4 10 -3 0
-8 -4 -11 -10z"/>
<path d="M4820 2140 c0 -5 5 -10 10 -10 6 0 10 5 10 10 0 6 -4 10 -10 10 -5 0
-10 -4 -10 -10z"/>
<path d="M1720 2121 c0 -5 5 -13 10 -16 6 -3 10 -2 10 4 0 5 -4 13 -10 16 -5
3 -10 2 -10 -4z"/>
<path d="M1748 2095 c-3 -13 -1 -22 3 -19 5 3 14 -7 20 -23 6 -15 13 -23 15
-17 4 10 -22 84 -30 84 -2 0 -6 -11 -8 -25z"/>
<path d="M4556 2085 c8 -35 10 -39 17 -28 3 5 -1 19 -9 33 l-14 25 6 -30z"/>
<path d="M4670 2100 c0 -5 5 -10 10 -10 6 0 10 5 10 10 0 6 -4 10 -10 10 -5 0
-10 -4 -10 -10z"/>
<path d="M4710 2100 c0 -6 7 -10 15 -10 8 0 15 2 15 4 0 2 -7 6 -15 10 -8 3
-15 1 -15 -4z"/>
<path d="M4644 2085 c3 -8 1 -15 -4 -15 -6 0 -10 -7 -10 -15 0 -23 17 -18 24
8 8 31 7 37 -5 37 -6 0 -9 -7 -5 -15z"/>
<path d="M1821 2061 c-10 -6 -10 -10 -1 -16 13 -8 24 -1 19 14 -3 6 -10 7 -18
2z"/>
<path d="M1857 2046 c-9 -10 -17 -22 -17 -27 0 -5 -6 -9 -14 -9 -8 0 -17 -7
-20 -16 -5 -12 -2 -15 10 -10 8 3 19 6 24 6 4 0 11 12 15 28 l7 27 13 -30 c14
-31 18 -17 6 24 -6 23 -7 23 -24 7z"/>
<path d="M5020 2050 c0 -5 5 -10 10 -10 6 0 10 5 10 10 0 6 -4 10 -10 10 -5 0
-10 -4 -10 -10z"/>
<path d="M4670 2010 c0 -5 5 -10 11 -10 5 0 7 5 4 10 -3 6 -8 10 -11 10 -2 0
-4 -4 -4 -10z"/>
<path d="M3630 1861 c0 -11 4 -21 9 -21 18 0 21 18 6 30 -13 10 -15 9 -15 -9z"/>
<path d="M4920 1850 c-9 -6 -10 -10 -3 -10 6 0 15 5 18 10 8 12 4 12 -15 0z"/>
<path d="M3720 1826 c0 -9 5 -16 10 -16 6 0 10 4 10 9 0 6 -4 13 -10 16 -5 3
-10 -1 -10 -9z"/>
<path d="M4846 1813 c-4 -9 -3 -20 1 -24 4 -4 9 3 9 17 2 28 -1 31 -10 7z"/>
<path d="M2196 1801 c-4 -7 -5 -15 -2 -18 9 -9 19 4 14 18 -4 11 -6 11 -12 0z"/>
<path d="M2250 1787 c0 -8 7 -17 15 -21 8 -3 15 -2 15 3 0 5 -7 14 -15 21 -12
10 -15 10 -15 -3z"/>
<path d="M3675 1758 c-10 -10 -25 -16 -32 -14 -7 3 -13 -2 -13 -10 0 -12 6
-15 23 -10 12 4 33 8 46 9 13 1 27 9 29 17 5 13 3 13 -12 1 -9 -8 -20 -11 -23
-7 -4 4 -1 11 6 15 7 5 9 11 5 13 -5 3 -18 -3 -29 -14z"/>
<path d="M3820 1769 c0 -5 5 -7 10 -4 6 3 10 8 10 11 0 2 -4 4 -10 4 -5 0 -10
-5 -10 -11z"/>
<path d="M4799 1753 c-13 -15 -12 -15 9 -4 23 12 28 21 13 21 -5 0 -15 -7 -22
-17z"/>
<path d="M4906 1756 c3 -9 13 -16 22 -16 8 0 13 1 11 3 -2 1 -12 9 -22 16 -15
12 -17 12 -11 -3z"/>
<path d="M3768 1743 c7 -3 16 -2 19 1 4 3 -2 6 -13 5 -11 0 -14 -3 -6 -6z"/>
<path d="M3980 1730 c0 -5 5 -10 10 -10 6 0 10 5 10 10 0 6 -4 10 -10 10 -5 0
-10 -4 -10 -10z"/>
<path d="M3666 1704 c-9 -24 -7 -28 9 -14 17 14 20 30 6 30 -5 0 -12 -7 -15
-16z"/>
<path d="M3780 1710 c0 -5 5 -10 10 -10 6 0 10 5 10 10 0 6 -4 10 -10 10 -5 0
-10 -4 -10 -10z"/>
<path d="M3602 1683 c-9 -20 -9 -30 -1 -37 9 -8 10 -6 6 7 -7 20 -3 21 24 7
13 -7 19 -7 19 0 0 5 -5 10 -12 10 -9 0 -9 3 0 12 17 17 15 28 -5 28 -10 0
-24 -12 -31 -27z"/>
<path d="M3965 1700 c-3 -5 1 -10 10 -10 9 0 13 5 10 10 -3 6 -8 10 -10 10 -2
0 -7 -4 -10 -10z"/>
<path d="M3820 1690 c0 -5 5 -10 10 -10 6 0 10 5 10 10 0 6 -4 10 -10 10 -5 0
-10 -4 -10 -10z"/>
<path d="M3480 1686 c0 -2 7 -7 16 -10 8 -3 12 -2 9 4 -6 10 -25 14 -25 6z"/>
<path d="M3755 1680 c3 -5 10 -10 16 -10 5 0 9 5 9 10 0 6 -7 10 -16 10 -8 0
-12 -4 -9 -10z"/>
<path d="M3936 1681 c-3 -5 4 -11 16 -14 29 -8 32 -4 8 11 -10 6 -21 8 -24 3z"/>
<path d="M3996 1681 c-4 -7 -5 -15 -2 -18 9 -9 19 4 14 18 -4 11 -6 11 -12 0z"/>
<path d="M4076 1683 c-3 -4 -16 -8 -28 -10 -12 -2 -27 -8 -35 -14 -7 -7 -27
-9 -48 -5 -22 4 -35 3 -35 -3 0 -19 47 -23 85 -7 20 9 41 13 46 10 5 -3 9 0 9
6 0 6 5 8 10 5 6 -3 10 1 10 9 0 18 -3 20 -14 9z"/>
<path d="M4140 1670 c0 -5 5 -10 11 -10 5 0 7 5 4 10 -3 6 -8 10 -11 10 -2 0
-4 -4 -4 -10z"/>
<path d="M2295 1660 c3 -5 11 -10 16 -10 6 0 7 5 4 10 -3 6 -11 10 -16 10 -6
0 -7 -4 -4 -10z"/>
<path d="M3690 1660 c-13 -8 -12 -10 3 -10 9 0 17 5 17 10 0 12 -1 12 -20 0z"/>
<path d="M2690 1650 c0 -5 5 -10 11 -10 5 0 7 5 4 10 -3 6 -8 10 -11 10 -2 0
-4 -4 -4 -10z"/>
<path d="M3900 1636 c0 -8 4 -17 9 -20 5 -4 7 3 4 14 -6 23 -13 26 -13 6z"/>
<path d="M3580 1617 c0 -19 4 -24 18 -20 19 5 48 43 33 43 -5 0 -11 -6 -14
-12 -3 -10 -7 -10 -20 1 -15 12 -17 11 -17 -12z"/>
<path d="M3645 1621 c-3 -5 2 -12 11 -15 12 -4 13 -10 6 -19 -7 -8 -5 -16 6
-27 14 -13 15 -12 9 2 -9 24 18 44 28 21 5 -10 7 -21 7 -25 -1 -5 3 -8 8 -8 6
0 10 2 10 4 0 8 -29 71 -30 64 0 -4 -11 -3 -25 2 -13 5 -27 5 -30 1z"/>
<path d="M3755 1620 c3 -5 8 -10 11 -10 2 0 4 5 4 10 0 6 -5 10 -11 10 -5 0
-7 -4 -4 -10z"/>
<path d="M2910 1616 c0 -2 7 -9 15 -16 9 -7 15 -8 15 -2 0 5 -7 12 -15 16 -8
3 -15 4 -15 2z"/>
<path d="M3527 1600 c3 -11 9 -20 13 -20 5 0 6 9 3 20 -3 11 -9 20 -13 20 -5
0 -6 -9 -3 -20z"/>
<path d="M3480 1597 c0 -8 9 -17 19 -20 13 -3 18 0 16 12 -3 20 -35 28 -35 8z"/>
<path d="M2950 1590 c0 -5 5 -10 10 -10 6 0 10 5 10 10 0 6 -4 10 -10 10 -5 0
-10 -4 -10 -10z"/>
<path d="M2980 1580 c0 -11 2 -20 5 -20 2 0 9 9 15 20 9 16 8 20 -5 20 -8 0
-15 -9 -15 -20z"/>
<path d="M3626 1585 c-9 -26 -7 -32 5 -12 6 10 9 21 6 23 -2 3 -7 -2 -11 -11z"/>
<path d="M3965 1590 c3 -5 8 -10 11 -10 2 0 4 5 4 10 0 6 -5 10 -11 10 -5 0
-7 -4 -4 -10z"/>
<path d="M2480 1560 c0 -5 5 -10 11 -10 5 0 7 5 4 10 -3 6 -8 10 -11 10 -2 0
-4 -4 -4 -10z"/>
<path d="M3050 1560 c0 -5 5 -10 11 -10 5 0 7 5 4 10 -3 6 -8 10 -11 10 -2 0
-4 -4 -4 -10z"/>
<path d="M3280 1560 c0 -5 4 -10 9 -10 6 0 13 5 16 10 3 6 -1 10 -9 10 -9 0
-16 -4 -16 -10z"/>
<path d="M3910 1560 c0 -5 5 -10 11 -10 5 0 7 5 4 10 -3 6 -8 10 -11 10 -2 0
-4 -4 -4 -10z"/>
<path d="M3440 1551 c0 -15 16 -22 35 -15 13 5 14 8 3 15 -18 12 -38 11 -38 0z"/>
<path d="M3515 1549 c-11 -16 -2 -17 25 -2 24 12 24 13 3 13 -12 0 -25 -5 -28
-11z"/>
<path d="M2990 1539 c0 -6 -8 -9 -18 -7 -11 3 -19 0 -19 -7 0 -7 10 -10 24 -7
13 2 23 11 23 18 0 8 -2 14 -5 14 -3 0 -5 -5 -5 -11z"/>
<path d="M3254 1535 c11 -8 23 -21 28 -27 6 -10 8 -9 8 3 0 9 -12 21 -27 28
-26 10 -27 10 -9 -4z"/>
<path d="M3321 1531 c-13 -10 -21 -23 -17 -30 11 -18 26 -13 20 7 -5 16 -5 16
9 0 16 -20 27 -14 27 13 0 26 -13 30 -39 10z"/>
<path d="M3618 1543 c7 -3 16 -2 19 1 4 3 -2 6 -13 5 -11 0 -14 -3 -6 -6z"/>
<path d="M3135 1530 c-3 -5 -2 -10 4 -10 5 0 13 5 16 10 3 6 2 10 -4 10 -5 0
-13 -4 -16 -10z"/>
<path d="M3470 1515 c-10 -13 -9 -15 9 -15 11 0 21 4 21 9 0 18 -18 21 -30 6z"/>
<path d="M3680 1521 c0 -7 -9 -9 -25 -5 -15 4 -25 2 -25 -5 0 -14 47 -14 55 0
4 6 4 13 1 16 -3 4 -6 1 -6 -6z"/>
<path d="M3180 1511 c0 -5 5 -13 10 -16 6 -3 10 -2 10 4 0 5 -4 13 -10 16 -5
3 -10 2 -10 -4z"/>
<path d="M3726 1510 c-17 -6 -18 -7 -3 -13 9 -3 19 -2 23 4 9 15 2 18 -20 9z"/>
<path d="M4460 1499 c0 -5 5 -7 10 -4 6 3 10 8 10 11 0 2 -4 4 -10 4 -5 0 -10
-5 -10 -11z"/>
<path d="M2559 1483 c-13 -16 -12 -17 4 -4 16 13 21 21 13 21 -2 0 -10 -8 -17
-17z"/>
<path d="M3125 1490 c-3 -5 1 -10 9 -10 9 0 16 5 16 10 0 6 -4 10 -9 10 -6 0
-13 -4 -16 -10z"/>
<path d="M3160 1491 c0 -5 5 -13 10 -16 6 -3 10 -2 10 4 0 5 -4 13 -10 16 -5
3 -10 2 -10 -4z"/>
<path d="M2450 1469 c0 -5 5 -7 10 -4 6 3 10 8 10 11 0 2 -4 4 -10 4 -5 0 -10
-5 -10 -11z"/>
<path d="M3340 1451 c0 -23 1 -23 18 -8 22 20 38 22 48 5 4 -6 3 -8 -4 -5 -13
9 -42 -2 -42 -15 0 -5 8 -8 18 -6 9 1 23 -1 30 -5 13 -9 15 4 6 39 -4 16 -13
21 -40 20 -29 -1 -34 -4 -34 -25z"/>
<path d="M3285 1461 c-3 -6 0 -11 9 -11 8 0 17 -6 20 -12 3 -7 5 -4 3 6 -2 22
-22 32 -32 17z"/>
<path d="M3451 1456 c-8 -10 -9 -16 -1 -21 5 -3 10 1 10 9 0 8 8 17 18 19 14
4 14 5 1 6 -9 0 -22 -5 -28 -13z"/>
<path d="M3172 1453 c-9 -3 -3 -12 17 -24 35 -21 51 -24 51 -9 0 6 -9 10 -20
10 -11 0 -20 7 -20 15 0 16 -6 17 -28 8z"/>
<path d="M3480 1440 c0 -5 5 -10 10 -10 6 0 10 5 10 10 0 6 -4 10 -10 10 -5 0
-10 -4 -10 -10z"/>
<path d="M4440 1435 c0 -8 2 -15 4 -15 2 0 6 7 10 15 3 8 1 15 -4 15 -6 0 -10
-7 -10 -15z"/>
<path d="M4350 1420 c0 -5 5 -10 10 -10 6 0 10 5 10 10 0 6 -4 10 -10 10 -5 0
-10 -4 -10 -10z"/>
<path d="M3250 1410 c0 -5 12 -10 28 -9 24 0 25 1 7 9 -27 12 -35 12 -35 0z"/>
<path d="M4070 1410 c-8 -5 -11 -12 -7 -16 4 -4 13 -2 19 4 15 15 7 24 -12 12z"/>
<path d="M3085 1400 c3 -5 10 -10 16 -10 5 0 9 5 9 10 0 6 -7 10 -16 10 -8 0
-12 -4 -9 -10z"/>
<path d="M3190 1400 c0 -5 5 -10 11 -10 5 0 7 5 4 10 -3 6 -8 10 -11 10 -2 0
-4 -4 -4 -10z"/>
<path d="M3310 1400 c0 -5 -9 -10 -20 -10 -22 0 -23 -1 -14 -25 5 -11 9 -13
14 -5 4 6 20 12 35 13 16 1 30 8 31 15 1 7 0 8 -3 2 -8 -16 -26 -12 -19 5 3 9
0 15 -9 15 -8 0 -15 -4 -15 -10z"/>
<path d="M3455 1400 c3 -5 8 -10 11 -10 2 0 4 5 4 10 0 6 -5 10 -11 10 -5 0
-7 -4 -4 -10z"/>
<path d="M3550 1394 c0 -8 5 -12 10 -9 6 4 8 11 5 16 -9 14 -15 11 -15 -7z"/>
<path d="M3625 1390 c3 -5 8 -10 11 -10 2 0 4 5 4 10 0 6 -5 10 -11 10 -5 0
-7 -4 -4 -10z"/>
<path d="M3250 1370 c0 -5 5 -10 11 -10 5 0 7 5 4 10 -3 6 -8 10 -11 10 -2 0
-4 -4 -4 -10z"/>
<path d="M3201 1361 c-9 -6 -6 -8 13 -8 14 0 23 3 20 8 -7 11 -15 11 -33 0z"/>
<path d="M3394 1359 c-5 -9 -2 -10 9 -6 9 3 17 2 19 -2 2 -4 14 -4 28 0 23 6
23 7 3 8 -12 1 -28 4 -36 7 -8 3 -18 0 -23 -7z"/>
<path d="M3480 1355 c0 -8 4 -15 10 -15 5 0 7 7 4 15 -4 8 -8 15 -10 15 -2 0
-4 -7 -4 -15z"/>
<path d="M3525 1360 c-3 -5 -1 -10 4 -10 6 0 11 5 11 10 0 6 -2 10 -4 10 -3 0
-8 -4 -11 -10z"/>
<path d="M3170 1330 c13 -23 20 -26 20 -6 0 8 -7 16 -15 20 -13 4 -14 2 -5
-14z"/>
<path d="M3292 1315 c-13 -20 -20 -40 -17 -43 3 -3 5 0 5 6 0 7 7 12 16 12 10
0 14 6 11 14 -3 8 -1 16 5 18 6 2 9 10 6 18 -2 8 -13 -1 -26 -25z"/>
<path d="M3098 1333 c6 -2 18 -2 25 0 6 3 1 5 -13 5 -14 0 -19 -2 -12 -5z"/>
<path d="M3230 1318 c0 -7 5 -9 30 -12 6 -1 9 3 8 9 -4 11 -38 15 -38 3z"/>
<path d="M3401 1321 c-8 -5 -9 -11 -3 -15 13 -8 42 3 42 15 0 11 -21 11 -39 0z"/>
<path d="M3506 1321 c-3 -5 1 -11 9 -14 9 -4 12 -1 8 9 -6 16 -10 17 -17 5z"/>
<path d="M3547 1302 c4 -18 1 -29 -12 -38 -10 -8 -16 -17 -12 -20 3 -3 22 6
41 21 38 29 37 47 -4 58 -17 4 -19 1 -13 -21z"/>
<path d="M3620 1320 c0 -5 5 -10 10 -10 6 0 10 5 10 10 0 6 -4 10 -10 10 -5 0
-10 -4 -10 -10z"/>
<path d="M3460 1305 c-7 -9 -11 -18 -8 -20 3 -3 11 1 18 10 7 9 11 18 8 20 -3
3 -11 -1 -18 -10z"/>
<path d="M4090 1309 c0 -5 5 -7 10 -4 6 3 10 8 10 11 0 2 -4 4 -10 4 -5 0 -10
-5 -10 -11z"/>
<path d="M3355 1280 c-16 -7 -13 -8 13 -6 17 2 35 6 39 9 9 10 -28 7 -52 -3z"/>
<path d="M3466 1261 c-15 -28 -15 -29 7 -18 13 6 23 19 23 29 0 27 -13 22 -30
-11z"/>
<path d="M4165 1280 c-3 -5 1 -10 10 -10 9 0 13 5 10 10 -3 6 -8 10 -10 10 -2
0 -7 -4 -10 -10z"/>
<path d="M3206 1271 c-4 -5 -2 -12 3 -15 5 -4 12 -2 15 3 4 5 2 12 -3 15 -5 4
-12 2 -15 -3z"/>
<path d="M2933 1263 c9 -2 17 -9 17 -14 0 -6 5 -7 11 -3 14 8 -8 24 -31 23
-11 -1 -10 -3 3 -6z"/>
<path d="M3310 1260 c0 -5 5 -10 10 -10 6 0 10 5 10 10 0 6 -4 10 -10 10 -5 0
-10 -4 -10 -10z"/>
<path d="M3375 1259 c-10 -15 3 -25 16 -12 7 7 7 13 1 17 -6 3 -14 1 -17 -5z"/>
<path d="M3597 1239 c4 -13 8 -18 11 -10 2 7 -1 18 -6 23 -8 8 -9 4 -5 -13z"/>
<path d="M3295 1230 c3 -5 8 -10 11 -10 2 0 4 5 4 10 0 6 -5 10 -11 10 -5 0
-7 -4 -4 -10z"/>
<path d="M3320 1230 c0 -5 5 -10 10 -10 6 0 10 5 10 10 0 6 -4 10 -10 10 -5 0
-10 -4 -10 -10z"/>
<path d="M3637 1229 c7 -7 15 -10 18 -7 3 3 -2 9 -12 12 -14 6 -15 5 -6 -5z"/>
<path d="M3260 1205 c0 -8 2 -15 4 -15 2 0 6 7 10 15 3 8 1 15 -4 15 -6 0 -10
-7 -10 -15z"/>
<path d="M3537 1204 c3 -7 9 -14 14 -14 14 0 10 17 -5 23 -10 4 -13 1 -9 -9z"/>
<path d="M2810 1199 c0 -5 5 -7 10 -4 6 3 10 8 10 11 0 2 -4 4 -10 4 -5 0 -10
-5 -10 -11z"/>
<path d="M3421 1201 c-7 -5 -12 -14 -10 -20 2 -6 10 -2 17 9 14 22 13 23 -7
11z"/>
<path d="M3440 1175 c0 -9 6 -12 15 -9 8 4 15 10 15 15 0 5 -7 9 -15 9 -8 0
-15 -7 -15 -15z"/>
<path d="M3520 1170 c0 -5 5 -10 10 -10 6 0 10 5 10 10 0 6 -4 10 -10 10 -5 0
-10 -4 -10 -10z"/>
<path d="M2971 1154 c0 -11 3 -14 6 -6 3 7 2 16 -1 19 -3 4 -6 -2 -5 -13z"/>
<path d="M3660 1160 c0 -6 7 -10 15 -10 8 0 15 2 15 4 0 2 -7 6 -15 10 -8 3
-15 1 -15 -4z"/>
<path d="M2995 1150 c3 -5 8 -10 11 -10 2 0 4 5 4 10 0 6 -5 10 -11 10 -5 0
-7 -4 -4 -10z"/>
<path d="M3470 1153 c1 -21 20 -35 39 -30 14 3 21 0 21 -9 0 -8 5 -14 10 -14
6 0 10 4 10 10 0 5 8 7 18 3 14 -5 13 -3 -3 11 -20 17 -20 17 4 10 17 -4 21
-3 16 6 -7 11 -25 9 -77 -6 -12 -4 -18 0 -18 10 0 9 -4 16 -10 16 -5 0 -10 -3
-10 -7z"/>
<path d="M3105 1140 c-3 -5 -1 -10 4 -10 6 0 11 5 11 10 0 6 -2 10 -4 10 -3 0
-8 -4 -11 -10z"/>
<path d="M3210 1130 c0 -5 5 -10 10 -10 6 0 10 5 10 10 0 6 -4 10 -10 10 -5 0
-10 -4 -10 -10z"/>
<path d="M3475 1090 c-3 -5 -1 -10 4 -10 6 0 11 5 11 10 0 6 -2 10 -4 10 -3 0
-8 -4 -11 -10z"/>
<path d="M3560 1084 c0 -8 5 -12 10 -9 6 4 8 11 5 16 -9 14 -15 11 -15 -7z"/>
<path d="M3723 1069 c-2 -19 11 -26 21 -10 3 5 0 14 -7 19 -10 8 -13 6 -14 -9z"/>
<path d="M3955 1070 c3 -5 8 -10 11 -10 2 0 4 5 4 10 0 6 -5 10 -11 10 -5 0
-7 -4 -4 -10z"/>
<path d="M2968 1063 c7 -3 16 -2 19 1 4 3 -2 6 -13 5 -11 0 -14 -3 -6 -6z"/>
<path d="M3694 1035 c8 -8 20 -15 26 -15 7 0 6 6 -4 15 -8 8 -20 15 -26 15 -7
0 -6 -6 4 -15z"/>
<path d="M3090 1029 c0 -5 5 -7 10 -4 6 3 10 8 10 11 0 2 -4 4 -10 4 -5 0 -10
-5 -10 -11z"/>
<path d="M3625 1030 c-3 -5 1 -10 9 -10 9 0 16 5 16 10 0 6 -4 10 -9 10 -6 0
-13 -4 -16 -10z"/>
<path d="M3288 1003 c7 -3 16 -2 19 1 4 3 -2 6 -13 5 -11 0 -14 -3 -6 -6z"/>
<path d="M3690 989 c-15 -28 -7 -34 14 -10 11 12 13 21 7 25 -5 4 -15 -3 -21
-15z"/>
<path d="M3160 969 c0 -5 5 -7 10 -4 6 3 10 8 10 11 0 2 -4 4 -10 4 -5 0 -10
-5 -10 -11z"/>
<path d="M3760 970 c0 -5 5 -10 11 -10 5 0 7 5 4 10 -3 6 -8 10 -11 10 -2 0
-4 -4 -4 -10z"/>
<path d="M3580 963 c0 -4 5 -15 10 -23 8 -13 10 -13 10 2 0 9 -4 20 -10 23 -5
3 -10 3 -10 -2z"/>
<path d="M3650 961 c0 -8 -7 -11 -15 -7 -8 3 -15 1 -15 -4 0 -6 6 -10 14 -10
17 0 31 18 22 27 -3 4 -6 1 -6 -6z"/>
<path d="M3718 963 c7 -3 16 -2 19 1 4 3 -2 6 -13 5 -11 0 -14 -3 -6 -6z"/>
<path d="M3275 949 c-9 -14 -2 -20 14 -10 8 6 9 11 3 15 -6 3 -14 1 -17 -5z"/>
<path d="M3550 940 c0 -5 5 -10 11 -10 5 0 7 5 4 10 -3 6 -8 10 -11 10 -2 0
-4 -4 -4 -10z"/>
<path d="M3680 940 c0 -5 5 -10 10 -10 6 0 10 5 10 10 0 6 -4 10 -10 10 -5 0
-10 -4 -10 -10z"/>
<path d="M3725 940 c-3 -5 -1 -10 4 -10 6 0 11 5 11 10 0 6 -2 10 -4 10 -3 0
-8 -4 -11 -10z"/>
<path d="M3810 940 c0 -5 5 -10 10 -10 6 0 10 5 10 10 0 6 -4 10 -10 10 -5 0
-10 -4 -10 -10z"/>
<path d="M3630 920 c0 -5 7 -10 15 -10 8 0 15 5 15 10 0 6 -7 10 -15 10 -8 0
-15 -4 -15 -10z"/>
<path d="M3753 915 c-15 -17 -3 -27 17 -15 10 6 11 12 5 19 -6 6 -14 4 -22 -4z"/>
<path d="M3586 890 c-19 -6 -19 -7 2 -12 12 -4 24 -2 27 2 8 13 -8 18 -29 10z"/>
<path d="M3525 860 c3 -5 8 -10 11 -10 2 0 4 5 4 10 0 6 -5 10 -11 10 -5 0 -7
-4 -4 -10z"/>
<path d="M3320 846 c0 -9 5 -16 10 -16 6 0 10 4 10 9 0 6 -4 13 -10 16 -5 3
-10 -1 -10 -9z"/>
<path d="M3666 851 c-4 -7 -5 -15 -2 -18 9 -9 19 4 14 18 -4 11 -6 11 -12 0z"/>
<path d="M3433 843 c9 -2 23 -2 30 0 6 3 -1 5 -18 5 -16 0 -22 -2 -12 -5z"/>
<path d="M3610 830 c20 -13 40 -13 40 0 0 6 -12 10 -27 10 -22 0 -25 -2 -13
-10z"/>
<path d="M2122 1320 c7 -11 16 -20 20 -20 15 0 8 15 -12 28 -19 12 -20 11 -8
-8z"/>
<path d="M4720 1210 c0 -5 5 -10 10 -10 6 0 10 5 10 10 0 6 -4 10 -10 10 -5 0
-10 -4 -10 -10z"/>
<path d="M4650 1150 c-8 -5 -10 -10 -5 -10 6 0 17 5 25 10 8 5 11 10 5 10 -5
0 -17 -5 -25 -10z"/>
<path d="M4495 1040 c-3 -5 -2 -10 4 -10 5 0 13 5 16 10 3 6 2 10 -4 10 -5 0
-13 -4 -16 -10z"/>
<path d="M4360 970 c-12 -8 -11 -10 7 -10 12 0 25 5 28 10 8 13 -15 13 -35 0z"/>
</g>
</svg>
